<svg width="160" height="160" viewBox="0 0 160 160" fill="none" xmlns="http://www.w3.org/2000/svg">
<g clip-path="url(#clip0)">
<path d="M0 72C0 46.7976 0 34.1965 4.90471 24.5704C9.21901 16.1031 16.1031 9.21901 24.5704 4.90471C34.1965 0 46.7976 0 72 0H88C113.202 0 125.804 0 135.43 4.90471C143.897 9.21901 150.781 16.1031 155.095 24.5704C160 34.1965 160 46.7976 160 72V88C160 113.202 160 125.804 155.095 135.43C150.781 143.897 143.897 150.781 135.43 155.095C125.804 160 113.202 160 88 160H72C46.7976 160 34.1965 160 24.5704 155.095C16.1031 150.781 9.21901 143.897 4.90471 135.43C0 125.804 0 113.202 0 88V72Z" fill="#F8F0FF"/>
<path fill-rule="evenodd" clip-rule="evenodd" d="M97.8002 48C99.457 48 100.8 49.3432 100.8 51V55.2H59.2002V51C59.2002 49.3432 60.5433 48 62.2002 48H64.8002H67.2002V46.4C67.2014 45.2865 67.6128 44.3874 68.4002 43.6C69.1876 42.8126 70.0866 42.4012 71.2002 42.4H88.8002C89.9137 42.4012 90.8128 42.8126 91.6002 43.6C92.3876 44.3874 92.799 45.2865 92.8002 46.4V48H95.2002H97.8002ZM69.6002 48H90.4002V46.4C90.4002 46.0287 90.4002 45.6 90.0002 45.2C89.6002 44.8 89.1715 44.8 88.8002 44.8H71.2002C70.8289 44.8 70.4002 44.8 70.0002 45.2C69.6002 45.6 69.6002 46.0287 69.6002 46.4V48ZM83.0003 60.8C83.5525 60.8 84.0003 60.3523 84.0003 59.8V56.8H100.8V71.4C100.8 73.0569 99.4571 74.4 97.8003 74.4H62.2005C60.5436 74.4 59.2005 73.0569 59.2005 71.4V56.8H77.6003V59.8C77.6003 60.3523 78.048 60.8 78.6003 60.8H83.0003Z" fill="#842FFB"/>
<path fill-rule="evenodd" clip-rule="evenodd" d="M104.8 83.4C104.8 82.8477 104.352 82.4 103.8 82.4H56.2002C55.6479 82.4 55.2002 82.8477 55.2002 83.4V85.4C55.2002 85.9523 55.6479 86.4 56.2002 86.4H103.8C104.352 86.4 104.8 85.9523 104.8 85.4V83.4ZM103.446 89.4104C103.743 88.7486 103.259 88 102.534 88H57.4668C56.7411 88 56.2571 88.7486 56.5549 89.4104L62.1349 101.81C62.2963 102.169 62.6533 102.4 63.0468 102.4L96.9536 102.4C97.3471 102.4 97.704 102.169 97.8655 101.81L103.446 89.4104ZM63.4002 114.4C62.8479 114.4 62.4002 113.952 62.4002 113.4V105C62.4002 104.448 62.8479 104 63.4002 104H96.6002C97.1525 104 97.6002 104.448 97.6002 105V113.4C97.6002 113.952 97.1525 114.4 96.6002 114.4H63.4002ZM63.4002 116C62.8479 116 62.4002 116.448 62.4002 117V125.4C62.4002 125.952 62.8479 126.4 63.4002 126.4H96.6002C97.1525 126.4 97.6002 125.952 97.6002 125.4V117C97.6002 116.448 97.1525 116 96.6002 116H63.4002ZM63.4002 174.4C62.8479 174.4 62.4002 173.952 62.4002 173.4V129C62.4002 128.448 62.8479 128 63.4002 128H96.6002C97.1525 128 97.6002 128.448 97.6002 129L97.6002 144C97.6002 144.552 98.0479 145 98.6002 145H126C126.552 145 127 145.448 127 146V148.741C127 148.911 126.957 149.078 126.874 149.227L122.286 157.486C122.11 157.803 121.775 158 121.412 158H98.6002C98.0479 158 97.6002 158.448 97.6002 159V173.4C97.6002 173.952 97.1525 174.4 96.6002 174.4H63.4002ZM86.6286 116.149C86.867 116.053 87.133 116.053 87.3714 116.149L89.6788 117.072C90.5169 117.407 90.5169 118.593 89.6788 118.929L87.3714 119.851C87.133 119.947 86.867 119.947 86.6286 119.851L84.3212 118.929C83.483 118.593 83.483 117.407 84.3212 117.072L86.6286 116.149Z" fill="white"/>
</g>
<defs>
<clipPath id="clip0">
<path d="M0 72C0 46.7976 0 34.1965 4.90471 24.5704C9.21901 16.1031 16.1031 9.21901 24.5704 4.90471C34.1965 0 46.7976 0 72 0H88C113.202 0 125.804 0 135.43 4.90471C143.897 9.21901 150.781 16.1031 155.095 24.5704C160 34.1965 160 46.7976 160 72V88C160 113.202 160 125.804 155.095 135.43C150.781 143.897 143.897 150.781 135.43 155.095C125.804 160 113.202 160 88 160H72C46.7976 160 34.1965 160 24.5704 155.095C16.1031 150.781 9.21901 143.897 4.90471 135.43C0 125.804 0 113.202 0 88V72Z" fill="white"/>
</clipPath>
</defs>
</svg>
