<svg width="143" height="31" viewBox="0 0 143 31" fill="none" xmlns="http://www.w3.org/2000/svg">
<path d="M7.668 19.264C12.046 19.264 14.642 16.756 14.642 12.224V3.6H11.122V12.092C11.122 15.018 9.868 16.228 7.69 16.228C5.534 16.228 4.258 15.018 4.258 12.092V3.6H0.694V12.224C0.694 16.756 3.29 19.264 7.668 19.264ZM30.445 19L24.703 11.036L30.071 3.6H26.221L22.745 8.594L19.203 3.6H15.155L20.567 11.168L14.869 19H18.961L22.613 13.654L26.331 19H30.445ZM51.7161 19L51.6941 3.6H50.7701L43.8841 15.502L36.9981 3.6H36.0521V19H37.1521V5.866L43.5981 16.954H44.1481L50.5941 5.822L50.6161 19H51.7161ZM55.7653 19H56.8873V3.6H55.7653V19ZM72.3516 3.6V16.976L61.8796 3.6H60.9336V19H62.0556V5.624L72.5496 19H73.4736V3.6H72.3516ZM77.5316 19H83.6256C88.5096 19 91.8096 15.788 91.8096 11.3C91.8096 6.812 88.5096 3.6 83.6256 3.6H77.5316V19ZM78.6536 17.988V4.612H83.5376C87.8936 4.612 90.6876 7.384 90.6876 11.3C90.6876 15.216 87.8936 17.988 83.5376 17.988H78.6536Z" fill="url(#paint0_linear)"/>
<path d="M0.6255 29H6.1965V24.14H5.553V28.388H3.735V24.14H3.0915V28.388H1.269V24.14H0.6255V29ZM7.6346 29H8.3051V26.66L10.6901 29H11.6531L9.0791 26.57L11.3561 24.14H10.4741L8.3051 26.48V24.14H7.6391L7.6346 29ZM14.2256 29.135C14.7056 29.135 15.1166 29.027 15.4586 28.811C15.8036 28.595 16.0676 28.295 16.2506 27.911C16.4366 27.524 16.5296 27.0755 16.5296 26.5655C16.5296 26.0645 16.4381 25.622 16.2551 25.238C16.0751 24.851 15.8126 24.5495 15.4676 24.3335C15.1256 24.1145 14.7116 24.005 14.2256 24.005C13.7516 24.005 13.3421 24.113 12.9971 24.329C12.6551 24.542 12.3911 24.8405 12.2051 25.2245C12.0191 25.6085 11.9261 26.0555 11.9261 26.5655C11.9261 27.0665 12.0161 27.5105 12.1961 27.8975C12.3791 28.2845 12.6416 28.5875 12.9836 28.8065C13.3286 29.0255 13.7426 29.135 14.2256 29.135ZM14.2256 28.5005C13.7006 28.5005 13.3031 28.325 13.0331 27.974C12.7631 27.62 12.6281 27.1505 12.6281 26.5655C12.6281 25.9985 12.7586 25.5365 13.0196 25.1795C13.2806 24.8195 13.6826 24.6395 14.2256 24.6395C14.7626 24.6395 15.1631 24.815 15.4271 25.166C15.6941 25.514 15.8276 25.9805 15.8276 26.5655C15.8276 27.1385 15.6956 27.605 15.4316 27.965C15.1676 28.322 14.7656 28.5005 14.2256 28.5005ZM17.2522 29C17.5582 29.06 17.7982 29.0645 17.9722 29.0135C18.1462 28.9625 18.2782 28.8575 18.3682 28.6985C18.4582 28.5395 18.5287 28.3265 18.5797 28.0595C18.6277 27.8225 18.6727 27.5285 18.7147 27.1775C18.7567 26.8265 18.7957 26.444 18.8317 26.03C18.8677 25.616 18.9007 25.1975 18.9307 24.7745H20.9647V29H21.6217V24.14H18.3187C18.2707 24.911 18.2212 25.5875 18.1702 26.1695C18.1222 26.7515 18.0607 27.2615 17.9857 27.6995C17.9407 27.9635 17.8747 28.1615 17.7877 28.2935C17.7037 28.4255 17.5252 28.4675 17.2522 28.4195V29ZM24.4495 29.135C25.2985 29.135 25.915 28.8215 26.299 28.1945V29H26.8885V25.9805C26.8885 25.8005 26.8795 25.6235 26.8615 25.4495C26.8435 25.2755 26.8045 25.118 26.7445 24.977C26.6155 24.662 26.395 24.422 26.083 24.257C25.774 24.089 25.3975 24.005 24.9535 24.005C24.4195 24.005 23.9845 24.125 23.6485 24.365C23.3125 24.605 23.0875 24.9425 22.9735 25.3775L23.617 25.5665C23.71 25.2425 23.8705 25.0055 24.0985 24.8555C24.3295 24.7055 24.6115 24.6305 24.9445 24.6305C25.4065 24.6305 25.7365 24.7385 25.9345 24.9545C26.1325 25.1675 26.2345 25.493 26.2405 25.931C26.0245 25.961 25.786 25.9925 25.525 26.0255C25.267 26.0585 25.0075 26.096 24.7465 26.138C24.4855 26.18 24.2455 26.228 24.0265 26.282C23.6635 26.378 23.3665 26.5385 23.1355 26.7635C22.9045 26.9855 22.789 27.296 22.789 27.695C22.789 27.953 22.8505 28.1915 22.9735 28.4105C23.0965 28.6295 23.281 28.805 23.527 28.937C23.776 29.069 24.0835 29.135 24.4495 29.135ZM24.526 28.5635C24.265 28.5635 24.055 28.5215 23.896 28.4375C23.74 28.3505 23.626 28.241 23.554 28.109C23.485 27.974 23.4505 27.836 23.4505 27.695C23.4505 27.431 23.539 27.233 23.716 27.101C23.893 26.969 24.085 26.873 24.292 26.813C24.559 26.741 24.8695 26.6825 25.2235 26.6375C25.5775 26.5925 25.9135 26.5505 26.2315 26.5115C26.2315 26.6225 26.227 26.75 26.218 26.894C26.212 27.035 26.1955 27.1655 26.1685 27.2855C26.1055 27.6515 25.9315 27.956 25.6465 28.199C25.3645 28.442 24.991 28.5635 24.526 28.5635ZM29.8617 30.08H30.4962V29H34.0692V30.08H34.7082V28.433H34.2402V24.14H31.0272C31.0062 24.65 30.9837 25.0955 30.9597 25.4765C30.9357 25.8545 30.9072 26.1905 30.8742 26.4845C30.8412 26.7785 30.7992 27.053 30.7482 27.308C30.6732 27.701 30.5757 27.9875 30.4557 28.1675C30.3357 28.3445 30.1377 28.433 29.8617 28.433V30.08ZM30.9822 28.433C31.0872 28.334 31.1652 28.208 31.2162 28.055C31.2702 27.902 31.3197 27.7175 31.3647 27.5015C31.4187 27.2795 31.4622 27.008 31.4952 26.687C31.5312 26.366 31.5597 26.0315 31.5807 25.6835C31.6047 25.3355 31.6242 25.01 31.6392 24.707H33.5832V28.433H30.9822ZM39.6504 24.14H39.0969L36.4284 27.893V24.14H35.7849V29H36.3429L39.0069 25.2155V29H39.6504V24.14ZM42.8439 29.135C43.1859 29.135 43.4934 29.075 43.7664 28.955C44.0424 28.832 44.2599 28.6595 44.4189 28.4375C44.5809 28.2125 44.6619 27.9455 44.6619 27.6365C44.6619 27.4025 44.6094 27.176 44.5044 26.957C44.3994 26.735 44.2374 26.57 44.0184 26.462C44.1834 26.336 44.3109 26.186 44.4009 26.012C44.4909 25.835 44.5359 25.6325 44.5359 25.4045C44.5359 25.1105 44.4609 24.86 44.3109 24.653C44.1639 24.443 43.9629 24.2825 43.7079 24.1715C43.4559 24.0605 43.1739 24.005 42.8619 24.005C42.4659 24.005 42.1044 24.0755 41.7774 24.2165C41.4534 24.3545 41.1699 24.557 40.9269 24.824L41.3499 25.2695C41.5269 25.0835 41.7429 24.932 41.9979 24.815C42.2529 24.695 42.5244 24.635 42.8124 24.635C43.0974 24.635 43.3419 24.7025 43.5459 24.8375C43.7529 24.9695 43.8564 25.1735 43.8564 25.4495C43.8564 25.7135 43.7544 25.9055 43.5504 26.0255C43.3464 26.1455 43.0749 26.2055 42.7359 26.2055H42.1689V26.7725H42.7449C43.1589 26.7725 43.4694 26.8325 43.6764 26.9525C43.8834 27.0695 43.9869 27.2765 43.9869 27.5735C43.9869 27.8615 43.8789 28.088 43.6629 28.253C43.4469 28.418 43.1604 28.5005 42.8034 28.5005C42.1194 28.5005 41.5959 28.1945 41.2329 27.5825L40.7019 27.92C40.9119 28.301 41.1984 28.5995 41.5614 28.8155C41.9274 29.0285 42.3549 29.135 42.8439 29.135ZM47.2255 29.135C48.0745 29.135 48.691 28.8215 49.075 28.1945V29H49.6645V25.9805C49.6645 25.8005 49.6555 25.6235 49.6375 25.4495C49.6195 25.2755 49.5805 25.118 49.5205 24.977C49.3915 24.662 49.171 24.422 48.859 24.257C48.55 24.089 48.1735 24.005 47.7295 24.005C47.1955 24.005 46.7605 24.125 46.4245 24.365C46.0885 24.605 45.8635 24.9425 45.7495 25.3775L46.393 25.5665C46.486 25.2425 46.6465 25.0055 46.8745 24.8555C47.1055 24.7055 47.3875 24.6305 47.7205 24.6305C48.1825 24.6305 48.5125 24.7385 48.7105 24.9545C48.9085 25.1675 49.0105 25.493 49.0165 25.931C48.8005 25.961 48.562 25.9925 48.301 26.0255C48.043 26.0585 47.7835 26.096 47.5225 26.138C47.2615 26.18 47.0215 26.228 46.8025 26.282C46.4395 26.378 46.1425 26.5385 45.9115 26.7635C45.6805 26.9855 45.565 27.296 45.565 27.695C45.565 27.953 45.6265 28.1915 45.7495 28.4105C45.8725 28.6295 46.057 28.805 46.303 28.937C46.552 29.069 46.8595 29.135 47.2255 29.135ZM47.302 28.5635C47.041 28.5635 46.831 28.5215 46.672 28.4375C46.516 28.3505 46.402 28.241 46.33 28.109C46.261 27.974 46.2265 27.836 46.2265 27.695C46.2265 27.431 46.315 27.233 46.492 27.101C46.669 26.969 46.861 26.873 47.068 26.813C47.335 26.741 47.6455 26.6825 47.9995 26.6375C48.3535 26.5925 48.6895 26.5505 49.0075 26.5115C49.0075 26.6225 49.003 26.75 48.994 26.894C48.988 27.035 48.9715 27.1655 48.9445 27.2855C48.8815 27.6515 48.7075 27.956 48.4225 28.199C48.1405 28.442 47.767 28.5635 47.302 28.5635ZM53.0319 23.564C53.2479 23.564 53.4429 23.513 53.6169 23.411C53.7939 23.306 53.9334 23.165 54.0354 22.988C54.1404 22.811 54.1929 22.616 54.1929 22.403H53.6439C53.6439 22.571 53.5839 22.715 53.4639 22.835C53.3469 22.955 53.2029 23.015 53.0319 23.015C52.8639 23.015 52.7199 22.955 52.5999 22.835C52.4799 22.715 52.4199 22.571 52.4199 22.403H51.8709C51.8709 22.616 51.9219 22.811 52.0239 22.988C52.1289 23.165 52.2699 23.306 52.4469 23.411C52.6239 23.513 52.8189 23.564 53.0319 23.564ZM54.8769 24.14H54.3234L51.6549 27.893V24.14H51.0114V29H51.5694L54.2334 25.2155V29H54.8769V24.14ZM56.3155 29H56.977V26.885H59.7175V29H60.379V24.14H59.7175V26.2505H56.977V24.14H56.3155V29ZM63.2078 29.135C64.0568 29.135 64.6733 28.8215 65.0573 28.1945V29H65.6468V25.9805C65.6468 25.8005 65.6378 25.6235 65.6198 25.4495C65.6018 25.2755 65.5628 25.118 65.5028 24.977C65.3738 24.662 65.1533 24.422 64.8413 24.257C64.5323 24.089 64.1558 24.005 63.7118 24.005C63.1778 24.005 62.7428 24.125 62.4068 24.365C62.0708 24.605 61.8458 24.9425 61.7318 25.3775L62.3753 25.5665C62.4683 25.2425 62.6288 25.0055 62.8568 24.8555C63.0878 24.7055 63.3698 24.6305 63.7028 24.6305C64.1648 24.6305 64.4948 24.7385 64.6928 24.9545C64.8908 25.1675 64.9928 25.493 64.9988 25.931C64.7828 25.961 64.5443 25.9925 64.2833 26.0255C64.0253 26.0585 63.7658 26.096 63.5048 26.138C63.2438 26.18 63.0038 26.228 62.7848 26.282C62.4218 26.378 62.1248 26.5385 61.8938 26.7635C61.6628 26.9855 61.5473 27.296 61.5473 27.695C61.5473 27.953 61.6088 28.1915 61.7318 28.4105C61.8548 28.6295 62.0393 28.805 62.2853 28.937C62.5343 29.069 62.8418 29.135 63.2078 29.135ZM63.2843 28.5635C63.0233 28.5635 62.8133 28.5215 62.6543 28.4375C62.4983 28.3505 62.3843 28.241 62.3123 28.109C62.2433 27.974 62.2088 27.836 62.2088 27.695C62.2088 27.431 62.2973 27.233 62.4743 27.101C62.6513 26.969 62.8433 26.873 63.0503 26.813C63.3173 26.741 63.6278 26.6825 63.9818 26.6375C64.3358 26.5925 64.6718 26.5505 64.9898 26.5115C64.9898 26.6225 64.9853 26.75 64.9763 26.894C64.9703 27.035 64.9538 27.1655 64.9268 27.2855C64.8638 27.6515 64.6898 27.956 64.4048 28.199C64.1228 28.442 63.7493 28.5635 63.2843 28.5635Z" fill="#112230"/>
<path d="M104.954 29.15C105.457 29.15 105.906 29.0667 106.299 28.9C106.696 28.7333 107.009 28.4933 107.239 28.18C107.469 27.8633 107.584 27.4817 107.584 27.035C107.584 26.695 107.521 26.4133 107.394 26.19C107.271 25.9633 107.114 25.7817 106.924 25.645C106.737 25.505 106.546 25.3983 106.349 25.325C106.152 25.2483 105.981 25.19 105.834 25.15L104.424 24.735C104.237 24.6817 104.044 24.6133 103.844 24.53C103.647 24.4467 103.481 24.3317 103.344 24.185C103.211 24.0383 103.144 23.8433 103.144 23.6C103.144 23.36 103.217 23.1467 103.364 22.96C103.511 22.77 103.711 22.6217 103.964 22.515C104.217 22.405 104.504 22.3517 104.824 22.355C105.327 22.3583 105.759 22.5 106.119 22.78C106.482 23.0567 106.701 23.4283 106.774 23.895L107.544 23.755C107.427 23.1083 107.126 22.5983 106.639 22.225C106.152 21.8483 105.549 21.6583 104.829 21.655C104.356 21.6517 103.934 21.7317 103.564 21.895C103.194 22.055 102.902 22.2833 102.689 22.58C102.476 22.8733 102.369 23.2233 102.369 23.63C102.369 24.1133 102.514 24.49 102.804 24.76C103.097 25.0267 103.464 25.225 103.904 25.355L105.729 25.9C105.896 25.95 106.064 26.0183 106.234 26.105C106.404 26.1917 106.546 26.3117 106.659 26.465C106.776 26.6183 106.834 26.8183 106.834 27.065C106.834 27.3483 106.754 27.5933 106.594 27.8C106.434 28.0067 106.214 28.1667 105.934 28.28C105.657 28.39 105.341 28.445 104.984 28.445C104.447 28.445 103.986 28.3133 103.599 28.05C103.212 27.7833 102.959 27.4167 102.839 26.95L102.089 27.075C102.172 27.5017 102.344 27.87 102.604 28.18C102.864 28.49 103.194 28.73 103.594 28.9C103.997 29.0667 104.451 29.15 104.954 29.15ZM111.831 29.15C112.668 29.15 113.351 28.9367 113.881 28.51C114.411 28.08 114.774 27.505 114.971 26.785L114.221 26.59C114.068 27.1567 113.793 27.6083 113.396 27.945C112.999 28.2783 112.478 28.445 111.831 28.445C111.268 28.445 110.796 28.3167 110.416 28.06C110.039 27.8 109.756 27.4417 109.566 26.985C109.379 26.5283 109.288 26 109.291 25.4C109.298 24.8 109.394 24.2717 109.581 23.815C109.768 23.355 110.048 22.9967 110.421 22.74C110.798 22.4833 111.268 22.355 111.831 22.355C112.478 22.355 112.999 22.5233 113.396 22.86C113.793 23.1933 114.068 23.6433 114.221 24.21L114.971 24.015C114.774 23.295 114.411 22.7217 113.881 22.295C113.351 21.865 112.668 21.65 111.831 21.65C111.114 21.65 110.509 21.8083 110.016 22.125C109.523 22.4417 109.149 22.8817 108.896 23.445C108.643 24.0083 108.516 24.66 108.516 25.4C108.516 26.1367 108.643 26.7883 108.896 27.355C109.149 27.9183 109.523 28.3583 110.016 28.675C110.509 28.9917 111.114 29.15 111.831 29.15ZM116.374 29H117.109V25.75H121.089V29H121.819V21.8H121.089V25.045H117.109V21.8H116.374V29ZM126.435 29.15C127.155 29.15 127.762 28.9917 128.255 28.675C128.748 28.3583 129.122 27.9183 129.375 27.355C129.628 26.7883 129.755 26.1367 129.755 25.4C129.755 24.66 129.628 24.0083 129.375 23.445C129.122 22.8817 128.748 22.4417 128.255 22.125C127.762 21.8083 127.155 21.65 126.435 21.65C125.718 21.65 125.113 21.8083 124.62 22.125C124.127 22.4417 123.753 22.8817 123.5 23.445C123.247 24.0083 123.12 24.66 123.12 25.4C123.12 26.1367 123.247 26.7883 123.5 27.355C123.753 27.9183 124.127 28.3583 124.62 28.675C125.113 28.9917 125.718 29.15 126.435 29.15ZM126.435 28.445C125.872 28.4417 125.4 28.3117 125.02 28.055C124.643 27.7983 124.362 27.4417 124.175 26.985C123.988 26.5283 123.897 26 123.9 25.4C123.907 24.8 124.003 24.2717 124.19 23.815C124.377 23.355 124.657 22.9967 125.03 22.74C125.403 22.48 125.872 22.3517 126.435 22.355C126.998 22.3583 127.468 22.4883 127.845 22.745C128.222 23.0017 128.503 23.3583 128.69 23.815C128.88 24.2717 128.975 24.8 128.975 25.4C128.975 26 128.88 26.53 128.69 26.99C128.503 27.4467 128.222 27.8033 127.845 28.06C127.468 28.3167 126.998 28.445 126.435 28.445ZM133.971 29.15C134.691 29.15 135.298 28.9917 135.791 28.675C136.285 28.3583 136.658 27.9183 136.911 27.355C137.165 26.7883 137.291 26.1367 137.291 25.4C137.291 24.66 137.165 24.0083 136.911 23.445C136.658 22.8817 136.285 22.4417 135.791 22.125C135.298 21.8083 134.691 21.65 133.971 21.65C133.255 21.65 132.65 21.8083 132.156 22.125C131.663 22.4417 131.29 22.8817 131.036 23.445C130.783 24.0083 130.656 24.66 130.656 25.4C130.656 26.1367 130.783 26.7883 131.036 27.355C131.29 27.9183 131.663 28.3583 132.156 28.675C132.65 28.9917 133.255 29.15 133.971 29.15ZM133.971 28.445C133.408 28.4417 132.936 28.3117 132.556 28.055C132.18 27.7983 131.898 27.4417 131.711 26.985C131.525 26.5283 131.433 26 131.436 25.4C131.443 24.8 131.54 24.2717 131.726 23.815C131.913 23.355 132.193 22.9967 132.566 22.74C132.94 22.48 133.408 22.3517 133.971 22.355C134.535 22.3583 135.005 22.4883 135.381 22.745C135.758 23.0017 136.04 23.3583 136.226 23.815C136.416 24.2717 136.511 24.8 136.511 25.4C136.511 26 136.416 26.53 136.226 26.99C136.04 27.4467 135.758 27.8033 135.381 28.06C135.005 28.3167 134.535 28.445 133.971 28.445ZM138.693 29H142.848V28.295H139.428V21.8H138.693V29Z" fill="#112230"/>
<path fill-rule="evenodd" clip-rule="evenodd" d="M103.435 6.24609L90.4353 29.2461L89.5647 28.754L102.565 5.75403L103.435 6.24609Z" fill="#C6CCD1"/>
<path d="M96.5797 4.55H97.1447V1.96L98.2897 3.96H98.6797L99.8297 1.96V4.55H100.4L100.39 0.8H99.8947L98.4847 3.215L97.0747 0.8H96.5797V4.55ZM93.9647 4.55H94.5597V1.36H95.8597V0.8H92.6547V1.36H93.9647V4.55Z" fill="#112230"/>
<defs>
<linearGradient id="paint0_linear" x1="35.4286" y1="-2" x2="35.4286" y2="32.425" gradientUnits="userSpaceOnUse">
<stop stop-color="#3D9FF5"/>
<stop offset="1" stop-color="#4C2AD5"/>
</linearGradient>
</defs>
</svg>
