<svg width="160" height="160" viewBox="0 0 160 160" fill="none" xmlns="http://www.w3.org/2000/svg">
<g clip-path="url(#clip0)">
<path d="M0 72C0 46.7976 0 34.1965 4.90471 24.5704C9.21901 16.1031 16.1031 9.21901 24.5704 4.90471C34.1965 0 46.7976 0 72 0H88C113.202 0 125.804 0 135.43 4.90471C143.897 9.21901 150.781 16.1031 155.095 24.5704C160 34.1965 160 46.7976 160 72V88C160 113.202 160 125.804 155.095 135.43C150.781 143.897 143.897 150.781 135.43 155.095C125.804 160 113.202 160 88 160H72C46.7976 160 34.1965 160 24.5704 155.095C16.1031 150.781 9.21901 143.897 4.90471 135.43C0 125.804 0 113.202 0 88V72Z" fill="#F8F0FF"/>
<path d="M58.3999 82.4H101.6V104H58.3999V82.4Z" fill="white"/>
<rect x="68" y="104" width="24" height="66.4" fill="white"/>
<path d="M68 104H92V106.4H68V104Z" fill="#F8F0FF"/>
<rect x="62.3999" y="86.4" width="1.6" height="13.6" rx="0.799999" fill="#F8F0FF"/>
<rect x="68" y="86.4" width="1.6" height="13.6" rx="0.799999" fill="#F8F0FF"/>
<rect x="73.6001" y="86.4" width="1.60001" height="13.6" rx="0.800007" fill="#F8F0FF"/>
<rect x="79.1997" y="86.4" width="1.59999" height="13.6" rx="0.799995" fill="#F8F0FF"/>
<rect x="84.7998" y="86.4" width="1.59998" height="13.6" rx="0.799992" fill="#F8F0FF"/>
<rect x="90.3999" y="86.4" width="1.60001" height="13.6" rx="0.800003" fill="#F8F0FF"/>
<rect x="96" y="86.4" width="1.60001" height="13.6" rx="0.800007" fill="#F8F0FF"/>
<path fill-rule="evenodd" clip-rule="evenodd" d="M60 55.2C60 52.5974 60 51.296 60.2408 50.2186C61.0859 46.4382 64.0382 43.4859 67.8186 42.6409C68.896 42.4 70.1973 42.4 72.8 42.4H87.2C89.8027 42.4 91.104 42.4 92.1814 42.6409C95.9618 43.4859 98.9142 46.4382 99.7592 50.2186C100 51.296 100 52.5974 100 55.2C100 57.8027 100 59.104 99.7592 60.1815C98.9142 63.9619 95.9618 66.9142 92.1814 67.7592C91.104 68 89.8027 68 87.2 68H72.8L68.1071 72.6929C67.4771 73.3229 66.4 72.8767 66.4 71.9858V67.3299C63.3117 66.1389 60.9769 63.4743 60.2408 60.1815C60 59.104 60 57.8027 60 55.2ZM70.4 57.6C71.7255 57.6 72.8 56.5255 72.8 55.2C72.8 53.8745 71.7255 52.8 70.4 52.8C69.0745 52.8 68 53.8745 68 55.2C68 56.5255 69.0745 57.6 70.4 57.6ZM82.4 55.2C82.4 56.5255 81.3255 57.6 80 57.6C78.6745 57.6 77.6 56.5255 77.6 55.2C77.6 53.8745 78.6745 52.8 80 52.8C81.3255 52.8 82.4 53.8745 82.4 55.2ZM89.6 57.6C90.9255 57.6 92 56.5255 92 55.2C92 53.8745 90.9255 52.8 89.6 52.8C88.2745 52.8 87.2 53.8745 87.2 55.2C87.2 56.5255 88.2745 57.6 89.6 57.6Z" fill="#842FFB"/>
</g>
<defs>
<clipPath id="clip0">
<path d="M0 72C0 46.7976 0 34.1965 4.90471 24.5704C9.21901 16.1031 16.1031 9.21901 24.5704 4.90471C34.1965 0 46.7976 0 72 0H88C113.202 0 125.804 0 135.43 4.90471C143.897 9.21901 150.781 16.1031 155.095 24.5704C160 34.1965 160 46.7976 160 72V88C160 113.202 160 125.804 155.095 135.43C150.781 143.897 143.897 150.781 135.43 155.095C125.804 160 113.202 160 88 160H72C46.7976 160 34.1965 160 24.5704 155.095C16.1031 150.781 9.21901 143.897 4.90471 135.43C0 125.804 0 113.202 0 88V72Z" fill="white"/>
</clipPath>
</defs>
</svg>
